<?xml version="1.0" encoding="UTF-8"?>
<svg id="Layer_2" data-name="Layer 2" xmlns="http://www.w3.org/2000/svg" viewBox="0 0 795.07 237.13">
  <defs>
    <style>
      .cls-1 {
        font-family: NotoSansMarchen-Regular, 'Noto Sans Marchen';
      }

      .cls-1, .cls-2, .cls-3 {
        letter-spacing: .02em;
      }

      .cls-4 {
        fill: #fff;
      }

      .cls-5 {
        font-family: ArchivoBlack-Regular, 'Archivo Black';
        font-size: 74.07px;
        letter-spacing: .02em;
      }

      .cls-5, .cls-6, .cls-7 {
        fill: #231f20;
      }

      .cls-6, .cls-7 {
        font-size: 45.22px;
      }

      .cls-7, .cls-8, .cls-9, .cls-10, .cls-2 {
        font-family: MyriadPro-Regular, 'Myriad Pro';
      }

      .cls-8 {
        letter-spacing: .04em;
      }

      .cls-9 {
        letter-spacing: .03em;
      }

      .cls-11 {
        opacity: .1;
      }

      .cls-11, .cls-12 {
        fill: #6b5ea9;
      }

      .cls-12 {
        opacity: .2;
      }

      .cls-10 {
        letter-spacing: .02em;
      }

      .cls-13 {
        letter-spacing: .01em;
      }
    </style>
  </defs>
  <g id="Layer_1-2" data-name="Layer 1">
    <path class="cls-12" d="M548.56,55.19v54.73H91.43c-3.3,0-16.39,14.14-24.38,13.63-5.39-.34-20.38-13.63-21.67-13.63H0V20.05C0,13.91,10.87,2.06,17.24.77c4.38-.89,22.37-1.05,26.72-.25,7.72,1.43,13.52,12.57,24.46,12.22,8.03-.26,20.17-12.28,21.66-12.28h458.49v54.73Z"/>
    <path class="cls-12" d="M795.07,113.97v110.81H230.26v-58.78c0-.19-2.13-2.43-2.73-2.72-8.54-4.09-18.9,18.71-21.5-4.18-.59-5.23-1.1-24.39,3.92-26.98,4.23-2.19,12.04,9.02,17.61,5.54.57-.36,2.71-3.74,2.71-4.09v-19.59h564.81ZM321.97,127.77c-4.4,1.74-8.52,4.95-9.16,9.78-1.44,10.82-1.5,52.97.15,63.5.67,4.27,3.52,7.4,7.66,8.57l380.38.35c5.32.24,9.7-2.68,11.16-7.79l.21-64.5c-.74-4.65-4.65-8.49-9.01-9.93h-381.39ZM269.72,166.5c-2.69-4.58,7.11-7.89,7.8-10.11.73-2.35-.67-4.64-3.2-4.6-4.81.08-13.84,12.42-14.35,16.88-1.9,16.4,16.78,19.15,17.35,6.55.26-5.84-7.02-7.72-7.6-8.71ZM296.62,151.8c-14.11-1.57-24.16,27.24-9.8,30.79,7.25,1.79,12.36-5.65,9.15-11.9-2.16-4.2-13.93-2.22-3.22-11.27,2.58-2.18,5.27.75,3.87-7.62Z"/>
    <path class="cls-12" d="M227.55,113.97c-.26,7.23.97,14.65-1.37,21.62-2.95,2.08-14.22-13.62-20.86-2.59-3.42,5.68-3.76,36.75,2.83,38.9,2.09.68,3.9.08,5.9-.46,2.4-.64,13.51-9.21,13.51-4.1v57.43H90.07c-1.83,0-13.69,10.29-16.98,11.42-13.25,4.57-18.52-9.02-28-11.14-10.1-2.26-22.39,2.48-32.49-2.72-4.52-2.33-12.6-12.2-12.6-17.16v-91.21h45.37c2.73,0,14.16,11.96,21.64,12.3,9.6.43,21-12.3,23.06-12.3h137.48Z"/>
    <path class="cls-11" d="M321.97,127.77h381.39c4.37,1.44,8.28,5.27,9.01,9.93l-.21,64.5c-1.46,5.11-5.84,8.03-11.16,7.79l-380.38-.35c-4.14-1.17-6.99-4.3-7.66-8.57-1.65-10.53-1.59-52.68-.15-63.5.64-4.83,4.76-8.04,9.16-9.78Z"/>
    <g>
      <path class="cls-11" d="M269.72,166.5c.58,1,7.87,2.87,7.6,8.71-.57,12.59-19.25,9.85-17.35-6.55.52-4.46,9.54-16.8,14.35-16.88,2.52-.04,3.93,2.26,3.2,4.6s-10.49,5.53-7.8,10.11Z"/>
      <path class="cls-11" d="M296.62,151.8c1.4,8.37-1.29,5.44-3.87,7.62-10.71,9.05,1.05,7.07,3.22,11.27,3.22,6.25-1.89,13.69-9.15,11.9-14.36-3.55-4.31-32.36,9.8-30.79Z"/>
    </g>
    <text class="cls-5" transform="translate(120.36 82.16)"><tspan x="0" y="0">TiCoder</tspan></text>
    <g>
      <path class="cls-4" d="M43.31,71.97c-1.61,1.43-3.06,3.04-4.54,4.57-1.06,1.09-3.59,3.25-4.23,4.43-1.06,1.94.19,4.28,2.1,5.09,6.65.18,13.37.15,20.02-.03,1.56-.04,3.61.29,4.99-.35,1.21-.56,2.26-1.86,2.78-3.07.2-12.65.02-25.32.06-37.89.01-4.11.48-8.51.13-12.61-.14-1.63-2.25-3.5-3.69-4.08l-24.01-.07c-2.35.77-3.68,3.52-2.03,5.61l23.1,23.26c.07.26-.32.66-.49.87-4.13,4.94-9.97,9.31-14.18,14.28ZM72.1,27.99c-4.9,1.88-3.7,6.77-3.78,10.99-.22,12.27-.27,24.65,0,36.92.07,3.26-.8,7.01,2.1,9.24,1.44,1.11,2.31.8,3.95.89,5.29.28,10.62.1,15.91,0,1.56-.03,4.88.28,6.18-.05,1.64-.42,2.53-2.65,2.28-4.2-.14-.86-2.58-3.32-3.3-4.09-5.54-5.87-11.57-11.38-17.24-17.14-.42-.43-3.29-3.35-3.25-3.6.47-.43.83-.96,1.26-1.42,6.29-6.87,13.6-13.17,20-19.98.52-.56,2.07-2.1,2.31-2.65.88-2.03-.47-4.37-2.5-4.93l-23.91.03Z"/>
      <path d="M72.1,27.99l23.91-.03c2.03.56,3.38,2.9,2.5,4.93-.24.55-1.79,2.1-2.31,2.65-6.4,6.81-13.7,13.11-20,19.98-.42.46-.79.99-1.26,1.42-.04.24,2.82,3.17,3.25,3.6,5.67,5.76,11.7,11.26,17.24,17.14.72.77,3.16,3.22,3.3,4.09.24,1.55-.64,3.78-2.28,4.2-1.31.33-4.62.02-6.18.05-5.29.1-10.62.28-15.91,0-1.65-.09-2.51.22-3.95-.89-2.89-2.22-2.02-5.98-2.1-9.24-.27-12.26-.22-24.65,0-36.92.08-4.23-1.12-9.11,3.78-10.99ZM92.51,32.54l-19.36.06c-.15.1-.23.58-.25.77-.17,1.63.04,3.66,0,5.35-.07,3.91-.43,8.48-.14,12.35.02.32.14.63.13.95.08.09.9-.6,1.02-.7,3.25-2.82,6.61-6.61,9.67-9.68s6.09-5.94,8.92-9.1ZM76.29,65.06c-1.09-1.06-2.21-2.17-3.39-3.1.1.63-.11,1.25-.13,1.84-.22,4.76-.33,11.35,0,16.05.05.67.03,1.62.83,1.72,1.49.19,3.65-.04,5.23-.01.3,0,.58.13.88.14,4.27.07,8.55-.03,12.8-.13.06-.22-.09-.25-.19-.38-.73-.96-2.11-2.07-3-2.99-4.26-4.41-8.61-8.85-13.03-13.14Z"/>
      <path d="M43.31,71.97c4.22-4.97,10.05-9.34,14.18-14.28.17-.21.56-.61.49-.87l-23.1-23.26c-1.64-2.09-.32-4.84,2.03-5.61l24.01.07c1.44.58,3.55,2.45,3.69,4.08.35,4.1-.12,8.5-.13,12.61-.04,12.57.14,25.24-.06,37.89-.52,1.21-1.57,2.52-2.78,3.07-1.39.64-3.43.31-4.99.35-6.65.19-13.37.22-20.02.03-1.91-.8-3.16-3.15-2.1-5.09.64-1.17,3.18-3.34,4.23-4.43,1.48-1.53,2.92-3.14,4.54-4.57ZM60.04,52.02l.13-.95c-.3-5.49.38-11.37,0-16.82-.03-.4-.13-1.42-.39-1.65l-19.35-.07,19.61,19.48ZM60.04,62.08c-.22-.06-.25.09-.38.19-2.24,1.74-4.6,4.52-6.68,6.56-4.11,4.03-8.27,8.11-12.3,12.28l-.12.45,19.2-.03.24-.46c-.01-5.88.59-12.45.18-18.3-.02-.25-.07-.46-.13-.69Z"/>
      <path class="cls-12" d="M76.29,65.06c4.42,4.29,8.77,8.73,13.03,13.14.89.92,2.26,2.03,3,2.99.1.13.25.16.19.38-4.25.1-8.53.2-12.8.13-.3,0-.58-.13-.88-.14-1.59-.03-3.75.2-5.23.01-.79-.1-.78-1.05-.83-1.72-.33-4.71-.22-11.29,0-16.05.03-.59.24-1.21.13-1.84,1.18.93,2.3,2.04,3.39,3.1Z"/>
      <path class="cls-12" d="M92.51,32.54c-2.83,3.16-5.92,6.09-8.92,9.1s-6.42,6.86-9.67,9.68c-.12.1-.94.79-1.02.7,0-.32-.11-.63-.13-.95-.29-3.88.06-8.44.14-12.35.03-1.69-.17-3.72,0-5.35.02-.19.1-.67.25-.77"/>
      <path class="cls-12" d="M60.04,52.02l-19.61-19.48,19.35.07c.27.23.36,1.25.39,1.65.38,5.45-.3,11.33,0,16.82l-.13.95Z"/>
      <path class="cls-12" d="M60.04,62.08c.06.23.12.45.13.69.42,5.86-.19,12.42-.18,18.3l-.24.46-19.2.03.12-.45c4.03-4.17,8.19-8.25,12.3-12.28,2.08-2.04,4.44-4.82,6.68-6.56.13-.1.16-.25.38-.19Z"/>
    </g>
    <text class="cls-7" transform="translate(37.27 183.11)"><tspan class="cls-3" x="0" y="0">built </tspan><tspan class="cls-13" x="101.87" y="0">b</tspan><tspan class="cls-3" x="128.18" y="0">y</tspan></text>
    <text class="cls-6" transform="translate(346.77 183.11)"><tspan class="cls-9" x="0" y="0">t</tspan><tspan class="cls-2" x="16.28" y="0">yler</tspan><tspan class="cls-1" x="89.3" y="0"> </tspan><tspan class="cls-10" x="100.15" y="0">holewins</tspan><tspan class="cls-8" x="277.48" y="0">k</tspan><tspan class="cls-10" x="300.36" y="0">i</tspan></text>
    <g>
      <path class="cls-11" d="M755.78,168.39c-.58-1-7.87-2.87-7.6-8.71.57-12.59,19.25-9.85,17.35,6.55-.52,4.46-9.54,16.8-14.35,16.88-2.52.04-3.93-2.26-3.2-4.6s10.49-5.53,7.8-10.11Z"/>
      <path class="cls-11" d="M728.88,183.08c-1.4-8.37,1.29-5.44,3.87-7.62,10.71-9.05-1.05-7.07-3.22-11.27-3.22-6.25,1.89-13.69,9.15-11.9,14.36,3.55,4.31,32.36-9.8,30.79Z"/>
    </g>
  </g>
</svg>