<?xml version="1.0" encoding="UTF-8" standalone="no"?>
<!-- Created with Inkscape (http://www.inkscape.org/) -->

<svg
   width="132.11684mm"
   height="119.08389mm"
   viewBox="0 0 132.11684 119.08389"
   version="1.1"
   id="svg5"
   xml:space="preserve"
   inkscape:version="1.2.2 (b0a84865, 2022-12-01)"
   sodipodi:docname="drawing.svg"
   xmlns:inkscape="http://www.inkscape.org/namespaces/inkscape"
   xmlns:sodipodi="http://sodipodi.sourceforge.net/DTD/sodipodi-0.dtd"
   xmlns="http://www.w3.org/2000/svg"
   xmlns:svg="http://www.w3.org/2000/svg"><sodipodi:namedview
     id="namedview7"
     pagecolor="#ffffff"
     bordercolor="#000000"
     borderopacity="0.25"
     inkscape:showpageshadow="2"
     inkscape:pageopacity="0.0"
     inkscape:pagecheckerboard="0"
     inkscape:deskcolor="#d1d1d1"
     inkscape:document-units="mm"
     showgrid="false"
     inkscape:zoom="0.62407438"
     inkscape:cx="328.48649"
     inkscape:cy="319.67343"
     inkscape:window-width="1470"
     inkscape:window-height="891"
     inkscape:window-x="0"
     inkscape:window-y="37"
     inkscape:window-maximized="1"
     inkscape:current-layer="layer1" /><defs
     id="defs2" /><g
     inkscape:label="Layer 1"
     inkscape:groupmode="layer"
     id="layer1"
     transform="translate(-0.68632667,-0.50108558)"><path
       style="fill:#000000;stroke-width:0.264583"
       d="m 4.9426807,118.90308 c -3.687458,-1.83754 -5.26772696,-6.26562 -3.544408,-9.93182 0.430329,-0.91549 6.258899,-6.88694 24.3724313,-24.969914 13.093764,-13.07167 23.808272,-23.89907 23.810012,-24.06089 0.0019,-0.16182 -10.706493,-10.95031 -23.796077,-23.97443 C 8.6913911,18.958276 1.8252917,11.959466 1.4172007,11.127586 -0.36619126,7.4921963 1.2290737,3.0043536 4.9522167,1.1827896 l 1.393354,-0.68170402 24.4602603,0.07154 24.460258,0.07153 1.5875,0.78938702 c 2.01141,1.000177 4.34723,3.340564 5.32679,5.3372137 l 0.75863,1.54632 V 59.910826 111.50458 l -0.84485,1.78349 c -1.09347,2.30833 -3.00082,4.21568 -5.30916,5.30916 l -1.78349,0.84485 -24.345205,0.0714 -24.3452033,0.0715 z m 48.3624653,-9.34604 c 0.48764,-0.60228 0.50559,-1.31238 0.50168,-19.843754 -0.002,-10.57052 -0.0916,-19.3567 -0.19858,-19.52484 -0.12265,-0.19273 -7.605367,7.06918 -20.24862,19.65109 -11.029744,10.976244 -19.982467,20.072684 -19.89494,20.214304 0.101447,0.16414 7.260845,0.23399 19.746932,0.19266 l 19.587788,-0.0648 z m 0.49798,-78.750384 c 0.005,-11.94879 -0.0897,-19.13568 -0.26083,-19.74785 -0.18007,-0.64422 -0.46446,-1.01482 -0.86011,-1.1208697 -1.1092,-0.2973 -39.403978,-0.18763 -39.303913,0.1125697 0.05101,0.15302 9.07623,9.25589 20.056053,20.2286 13.04701,13.03856 20.03213,19.83997 20.16196,19.63167 0.10925,-0.17529 0.20233,-8.77214 0.20684,-19.10412 z m 24.223763,88.329824 c -2.64424,-0.81677 -5.32154,-3.10375 -6.51177,-5.56243 -1.32841,-2.74414 -1.28056,-0.76255 -1.29064,-53.451764 -0.007,-35.23863 0.0745,-49.66483 0.28548,-50.6677097 0.71752,-3.4114397 3.12482,-6.5373417 6.18739,-8.0344077 l 1.5875,-0.77601202 24.460251,-0.07153 24.46026,-0.07154 1.38467,0.67745402 c 3.60874,1.765589 5.23611,6.2656057 3.53926,9.7867454 -0.50891,1.05606 -5.39498,6.05863 -24.39614,24.97786 -13.067871,13.01154 -23.762791,23.84622 -23.766501,24.07709 -0.004,0.23086 10.70806,11.07585 23.803921,24.09996 26.239,26.095264 25.01553,24.722134 24.98909,28.045834 -0.0233,2.93446 -1.31747,5.12113 -3.9394,6.65635 l -1.05833,0.6197 -24.20938,0.0505 c -21.126141,0.0441 -24.377011,-0.001 -25.525661,-0.35609 z m 42.033591,-9.04094 c 0.17849,-0.28882 -39.899651,-40.330834 -40.133341,-40.097154 -0.22458,0.22458 -0.24763,38.343034 -0.0237,39.178204 0.0859,0.32033 0.47122,0.69592 0.85628,0.83464 0.85358,0.30749 39.112091,0.38957 39.300751,0.0843 z M 119.99828,9.9726363 c -0.11573,-0.11573 -9.03667,-0.17838 -19.82432,-0.13923 -15.663561,0.0568 -19.683181,0.14042 -19.957791,0.4150397 -0.27457,0.27456 -0.35823,4.27276 -0.41509,19.83816 -0.0392,10.72187 -0.004,19.66964 0.0783,19.88395 0.10211,0.2661 6.51903,-5.97946 20.239411,-19.69894 11.04943,-11.04872 19.9952,-20.18326 19.87948,-20.2989797 z"
       id="path2008" /></g></svg>
